<svg xmlns="http://www.w3.org/2000/svg" xmlns:xlink="http://www.w3.org/1999/xlink" width="256" height="304" preserveAspectRatio="xMidYMid" version="1.1" viewBox="0 0 256 304"><g><polygon fill="#BCBBBB" points="216.33 276.188 216.33 194.977 243.283 194.977 243.283 303.142 0 303.142 0 194.977 26.954 194.977 26.954 276.188"/><path fill="#F48023" d="M56.7077876,187.275718 L189.025959,214.929516 L194.626728,188.325863 L62.3085568,160.672065 L56.7077876,187.275718 L56.7077876,187.275718 Z M74.2101912,124.267065 L196.727016,181.324901 L207.928555,156.821536 L85.4117295,99.4136524 L74.2101912,124.267065 Z M108.164854,64.0587971 L212.129132,150.520671 L229.281487,129.867835 L125.31721,43.4059609 L108.164854,64.0587971 L108.164854,64.0587971 Z M175.374084,0 L153.671104,16.1022113 L234.18216,124.617114 L255.88514,108.514902 L175.374084,0 Z M53.9074031,248.884179 L189.025959,248.884179 L189.025959,221.930478 L53.9074031,221.930478 L53.9074031,248.884179 Z"/></g></svg>