<svg xmlns="http://www.w3.org/2000/svg" width="200" height="200" baseProfile="tiny" version="1.1"><rect width="200" height="200" x="0" y="0" fill="#fff" shape-rendering="optimizeSpeed"/><rect width="5" height="5" x="17" y="17" fill="#000" shape-rendering="optimizeSpeed"/><rect width="5" height="5" x="22" y="17" fill="#000" shape-rendering="optimizeSpeed"/><rect width="5" height="5" x="27" y="17" fill="#000" shape-rendering="optimizeSpeed"/><rect width="5" height="5" x="32" y="17" fill="#000" shape-rendering="optimizeSpeed"/><rect width="5" height="5" x="37" y="17" fill="#000" shape-rendering="optimizeSpeed"/><rect width="5" height="5" x="42" y="17" fill="#000" shape-rendering="optimizeSpeed"/><rect width="5" height="5" x="47" y="17" fill="#000" shape-rendering="optimizeSpeed"/><rect width="5" height="5" x="62" y="17" fill="#000" shape-rendering="optimizeSpeed"/><rect width="5" height="5" x="92" y="17" fill="#000" shape-rendering="optimizeSpeed"/><rect width="5" height="5" x="97" y="17" fill="#000" shape-rendering="optimizeSpeed"/><rect width="5" height="5" x="112" y="17" fill="#000" shape-rendering="optimizeSpeed"/><rect width="5" height="5" x="117" y="17" fill="#000" shape-rendering="optimizeSpeed"/><rect width="5" height="5" x="147" y="17" fill="#000" shape-rendering="optimizeSpeed"/><rect width="5" height="5" x="152" y="17" fill="#000" shape-rendering="optimizeSpeed"/><rect width="5" height="5" x="157" y="17" fill="#000" shape-rendering="optimizeSpeed"/><rect width="5" height="5" x="162" y="17" fill="#000" shape-rendering="optimizeSpeed"/><rect width="5" height="5" x="167" y="17" fill="#000" shape-rendering="optimizeSpeed"/><rect width="5" height="5" x="172" y="17" fill="#000" shape-rendering="optimizeSpeed"/><rect width="5" height="5" x="177" y="17" fill="#000" shape-rendering="optimizeSpeed"/><rect width="5" height="5" x="17" y="22" fill="#000" shape-rendering="optimizeSpeed"/><rect width="5" height="5" x="47" y="22" fill="#000" shape-rendering="optimizeSpeed"/><rect width="5" height="5" x="57" y="22" fill="#000" shape-rendering="optimizeSpeed"/><rect width="5" height="5" x="62" y="22" fill="#000" shape-rendering="optimizeSpeed"/><rect width="5" height="5" x="72" y="22" fill="#000" shape-rendering="optimizeSpeed"/><rect width="5" height="5" x="77" y="22" fill="#000" shape-rendering="optimizeSpeed"/><rect width="5" height="5" x="117" y="22" fill="#000" shape-rendering="optimizeSpeed"/><rect width="5" height="5" x="147" y="22" fill="#000" shape-rendering="optimizeSpeed"/><rect width="5" height="5" x="177" y="22" fill="#000" shape-rendering="optimizeSpeed"/><rect width="5" height="5" x="17" y="27" fill="#000" shape-rendering="optimizeSpeed"/><rect width="5" height="5" x="27" y="27" fill="#000" shape-rendering="optimizeSpeed"/><rect width="5" height="5" x="32" y="27" fill="#000" shape-rendering="optimizeSpeed"/><rect width="5" height="5" x="37" y="27" fill="#000" shape-rendering="optimizeSpeed"/><rect width="5" height="5" x="47" y="27" fill="#000" shape-rendering="optimizeSpeed"/><rect width="5" height="5" x="62" y="27" fill="#000" shape-rendering="optimizeSpeed"/><rect width="5" height="5" x="67" y="27" fill="#000" shape-rendering="optimizeSpeed"/><rect width="5" height="5" x="72" y="27" fill="#000" shape-rendering="optimizeSpeed"/><rect width="5" height="5" x="87" y="27" fill="#000" shape-rendering="optimizeSpeed"/><rect width="5" height="5" x="97" y="27" fill="#000" shape-rendering="optimizeSpeed"/><rect width="5" height="5" x="107" y="27" fill="#000" shape-rendering="optimizeSpeed"/><rect width="5" height="5" x="112" y="27" fill="#000" shape-rendering="optimizeSpeed"/><rect width="5" height="5" x="122" y="27" fill="#000" shape-rendering="optimizeSpeed"/><rect width="5" height="5" x="127" y="27" fill="#000" shape-rendering="optimizeSpeed"/><rect width="5" height="5" x="132" y="27" fill="#000" shape-rendering="optimizeSpeed"/><rect width="5" height="5" x="147" y="27" fill="#000" shape-rendering="optimizeSpeed"/><rect width="5" height="5" x="157" y="27" fill="#000" shape-rendering="optimizeSpeed"/><rect width="5" height="5" x="162" y="27" fill="#000" shape-rendering="optimizeSpeed"/><rect width="5" height="5" x="167" y="27" fill="#000" shape-rendering="optimizeSpeed"/><rect width="5" height="5" x="177" y="27" fill="#000" shape-rendering="optimizeSpeed"/><rect width="5" height="5" x="17" y="32" fill="#000" shape-rendering="optimizeSpeed"/><rect width="5" height="5" x="27" y="32" fill="#000" shape-rendering="optimizeSpeed"/><rect width="5" height="5" x="32" y="32" fill="#000" shape-rendering="optimizeSpeed"/><rect width="5" height="5" x="37" y="32" fill="#000" shape-rendering="optimizeSpeed"/><rect width="5" height="5" x="47" y="32" fill="#000" shape-rendering="optimizeSpeed"/><rect width="5" height="5" x="57" y="32" fill="#000" shape-rendering="optimizeSpeed"/><rect width="5" height="5" x="62" y="32" fill="#000" shape-rendering="optimizeSpeed"/><rect width="5" height="5" x="72" y="32" fill="#000" shape-rendering="optimizeSpeed"/><rect width="5" height="5" x="97" y="32" fill="#000" shape-rendering="optimizeSpeed"/><rect width="5" height="5" x="102" y="32" fill="#000" shape-rendering="optimizeSpeed"/><rect width="5" height="5" x="117" y="32" fill="#000" shape-rendering="optimizeSpeed"/><rect width="5" height="5" x="127" y="32" fill="#000" shape-rendering="optimizeSpeed"/><rect width="5" height="5" x="132" y="32" fill="#000" shape-rendering="optimizeSpeed"/><rect width="5" height="5" x="137" y="32" fill="#000" shape-rendering="optimizeSpeed"/><rect width="5" height="5" x="147" y="32" fill="#000" shape-rendering="optimizeSpeed"/><rect width="5" height="5" x="157" y="32" fill="#000" shape-rendering="optimizeSpeed"/><rect width="5" height="5" x="162" y="32" fill="#000" shape-rendering="optimizeSpeed"/><rect width="5" height="5" x="167" y="32" fill="#000" shape-rendering="optimizeSpeed"/><rect width="5" height="5" x="177" y="32" fill="#000" shape-rendering="optimizeSpeed"/><rect width="5" height="5" x="17" y="37" fill="#000" shape-rendering="optimizeSpeed"/><rect width="5" height="5" x="27" y="37" fill="#000" shape-rendering="optimizeSpeed"/><rect width="5" height="5" x="32" y="37" fill="#000" shape-rendering="optimizeSpeed"/><rect width="5" height="5" x="37" y="37" fill="#000" shape-rendering="optimizeSpeed"/><rect width="5" height="5" x="47" y="37" fill="#000" shape-rendering="optimizeSpeed"/><rect width="5" height="5" x="67" y="37" fill="#000" shape-rendering="optimizeSpeed"/><rect width="5" height="5" x="77" y="37" fill="#000" shape-rendering="optimizeSpeed"/><rect width="5" height="5" x="82" y="37" fill="#000" shape-rendering="optimizeSpeed"/><rect width="5" height="5" x="87" y="37" fill="#000" shape-rendering="optimizeSpeed"/><rect width="5" height="5" x="92" y="37" fill="#000" shape-rendering="optimizeSpeed"/><rect width="5" height="5" x="107" y="37" fill="#000" shape-rendering="optimizeSpeed"/><rect width="5" height="5" x="112" y="37" fill="#000" shape-rendering="optimizeSpeed"/><rect width="5" height="5" x="117" y="37" fill="#000" shape-rendering="optimizeSpeed"/><rect width="5" height="5" x="132" y="37" fill="#000" shape-rendering="optimizeSpeed"/><rect width="5" height="5" x="137" y="37" fill="#000" shape-rendering="optimizeSpeed"/><rect width="5" height="5" x="147" y="37" fill="#000" shape-rendering="optimizeSpeed"/><rect width="5" height="5" x="157" y="37" fill="#000" shape-rendering="optimizeSpeed"/><rect width="5" height="5" x="162" y="37" fill="#000" shape-rendering="optimizeSpeed"/><rect width="5" height="5" x="167" y="37" fill="#000" shape-rendering="optimizeSpeed"/><rect width="5" height="5" x="177" y="37" fill="#000" shape-rendering="optimizeSpeed"/><rect width="5" height="5" x="17" y="42" fill="#000" shape-rendering="optimizeSpeed"/><rect width="5" height="5" x="47" y="42" fill="#000" shape-rendering="optimizeSpeed"/><rect width="5" height="5" x="57" y="42" fill="#000" shape-rendering="optimizeSpeed"/><rect width="5" height="5" x="67" y="42" fill="#000" shape-rendering="optimizeSpeed"/><rect width="5" height="5" x="82" y="42" fill="#000" shape-rendering="optimizeSpeed"/><rect width="5" height="5" x="87" y="42" fill="#000" shape-rendering="optimizeSpeed"/><rect width="5" height="5" x="92" y="42" fill="#000" shape-rendering="optimizeSpeed"/><rect width="5" height="5" x="97" y="42" fill="#000" shape-rendering="optimizeSpeed"/><rect width="5" height="5" x="117" y="42" fill="#000" shape-rendering="optimizeSpeed"/><rect width="5" height="5" x="122" y="42" fill="#000" shape-rendering="optimizeSpeed"/><rect width="5" height="5" x="137" y="42" fill="#000" shape-rendering="optimizeSpeed"/><rect width="5" height="5" x="147" y="42" fill="#000" shape-rendering="optimizeSpeed"/><rect width="5" height="5" x="177" y="42" fill="#000" shape-rendering="optimizeSpeed"/><rect width="5" height="5" x="17" y="47" fill="#000" shape-rendering="optimizeSpeed"/><rect width="5" height="5" x="22" y="47" fill="#000" shape-rendering="optimizeSpeed"/><rect width="5" height="5" x="27" y="47" fill="#000" shape-rendering="optimizeSpeed"/><rect width="5" height="5" x="32" y="47" fill="#000" shape-rendering="optimizeSpeed"/><rect width="5" height="5" x="37" y="47" fill="#000" shape-rendering="optimizeSpeed"/><rect width="5" height="5" x="42" y="47" fill="#000" shape-rendering="optimizeSpeed"/><rect width="5" height="5" x="47" y="47" fill="#000" shape-rendering="optimizeSpeed"/><rect width="5" height="5" x="57" y="47" fill="#000" shape-rendering="optimizeSpeed"/><rect width="5" height="5" x="67" y="47" fill="#000" shape-rendering="optimizeSpeed"/><rect width="5" height="5" x="77" y="47" fill="#000" shape-rendering="optimizeSpeed"/><rect width="5" height="5" x="87" y="47" fill="#000" shape-rendering="optimizeSpeed"/><rect width="5" height="5" x="97" y="47" fill="#000" shape-rendering="optimizeSpeed"/><rect width="5" height="5" x="107" y="47" fill="#000" shape-rendering="optimizeSpeed"/><rect width="5" height="5" x="117" y="47" fill="#000" shape-rendering="optimizeSpeed"/><rect width="5" height="5" x="127" y="47" fill="#000" shape-rendering="optimizeSpeed"/><rect width="5" height="5" x="137" y="47" fill="#000" shape-rendering="optimizeSpeed"/><rect width="5" height="5" x="147" y="47" fill="#000" shape-rendering="optimizeSpeed"/><rect width="5" height="5" x="152" y="47" fill="#000" shape-rendering="optimizeSpeed"/><rect width="5" height="5" x="157" y="47" fill="#000" shape-rendering="optimizeSpeed"/><rect width="5" height="5" x="162" y="47" fill="#000" shape-rendering="optimizeSpeed"/><rect width="5" height="5" x="167" y="47" fill="#000" shape-rendering="optimizeSpeed"/><rect width="5" height="5" x="172" y="47" fill="#000" shape-rendering="optimizeSpeed"/><rect width="5" height="5" x="177" y="47" fill="#000" shape-rendering="optimizeSpeed"/><rect width="5" height="5" x="77" y="52" fill="#000" shape-rendering="optimizeSpeed"/><rect width="5" height="5" x="82" y="52" fill="#000" shape-rendering="optimizeSpeed"/><rect width="5" height="5" x="92" y="52" fill="#000" shape-rendering="optimizeSpeed"/><rect width="5" height="5" x="122" y="52" fill="#000" shape-rendering="optimizeSpeed"/><rect width="5" height="5" x="127" y="52" fill="#000" shape-rendering="optimizeSpeed"/><rect width="5" height="5" x="17" y="57" fill="#000" shape-rendering="optimizeSpeed"/><rect width="5" height="5" x="22" y="57" fill="#000" shape-rendering="optimizeSpeed"/><rect width="5" height="5" x="27" y="57" fill="#000" shape-rendering="optimizeSpeed"/><rect width="5" height="5" x="32" y="57" fill="#000" shape-rendering="optimizeSpeed"/><rect width="5" height="5" x="37" y="57" fill="#000" shape-rendering="optimizeSpeed"/><rect width="5" height="5" x="47" y="57" fill="#000" shape-rendering="optimizeSpeed"/><rect width="5" height="5" x="52" y="57" fill="#000" shape-rendering="optimizeSpeed"/><rect width="5" height="5" x="57" y="57" fill="#000" shape-rendering="optimizeSpeed"/><rect width="5" height="5" x="62" y="57" fill="#000" shape-rendering="optimizeSpeed"/><rect width="5" height="5" x="67" y="57" fill="#000" shape-rendering="optimizeSpeed"/><rect width="5" height="5" x="77" y="57" fill="#000" shape-rendering="optimizeSpeed"/><rect width="5" height="5" x="87" y="57" fill="#000" shape-rendering="optimizeSpeed"/><rect width="5" height="5" x="92" y="57" fill="#000" shape-rendering="optimizeSpeed"/><rect width="5" height="5" x="102" y="57" fill="#000" shape-rendering="optimizeSpeed"/><rect width="5" height="5" x="127" y="57" fill="#000" shape-rendering="optimizeSpeed"/><rect width="5" height="5" x="142" y="57" fill="#000" shape-rendering="optimizeSpeed"/><rect width="5" height="5" x="152" y="57" fill="#000" shape-rendering="optimizeSpeed"/><rect width="5" height="5" x="162" y="57" fill="#000" shape-rendering="optimizeSpeed"/><rect width="5" height="5" x="172" y="57" fill="#000" shape-rendering="optimizeSpeed"/><rect width="5" height="5" x="22" y="62" fill="#000" shape-rendering="optimizeSpeed"/><rect width="5" height="5" x="27" y="62" fill="#000" shape-rendering="optimizeSpeed"/><rect width="5" height="5" x="32" y="62" fill="#000" shape-rendering="optimizeSpeed"/><rect width="5" height="5" x="37" y="62" fill="#000" shape-rendering="optimizeSpeed"/><rect width="5" height="5" x="42" y="62" fill="#000" shape-rendering="optimizeSpeed"/><rect width="5" height="5" x="52" y="62" fill="#000" shape-rendering="optimizeSpeed"/><rect width="5" height="5" x="57" y="62" fill="#000" shape-rendering="optimizeSpeed"/><rect width="5" height="5" x="62" y="62" fill="#000" shape-rendering="optimizeSpeed"/><rect width="5" height="5" x="92" y="62" fill="#000" shape-rendering="optimizeSpeed"/><rect width="5" height="5" x="97" y="62" fill="#000" shape-rendering="optimizeSpeed"/><rect width="5" height="5" x="112" y="62" fill="#000" shape-rendering="optimizeSpeed"/><rect width="5" height="5" x="117" y="62" fill="#000" shape-rendering="optimizeSpeed"/><rect width="5" height="5" x="147" y="62" fill="#000" shape-rendering="optimizeSpeed"/><rect width="5" height="5" x="167" y="62" fill="#000" shape-rendering="optimizeSpeed"/><rect width="5" height="5" x="172" y="62" fill="#000" shape-rendering="optimizeSpeed"/><rect width="5" height="5" x="177" y="62" fill="#000" shape-rendering="optimizeSpeed"/><rect width="5" height="5" x="17" y="67" fill="#000" shape-rendering="optimizeSpeed"/><rect width="5" height="5" x="22" y="67" fill="#000" shape-rendering="optimizeSpeed"/><rect width="5" height="5" x="42" y="67" fill="#000" shape-rendering="optimizeSpeed"/><rect width="5" height="5" x="47" y="67" fill="#000" shape-rendering="optimizeSpeed"/><rect width="5" height="5" x="62" y="67" fill="#000" shape-rendering="optimizeSpeed"/><rect width="5" height="5" x="72" y="67" fill="#000" shape-rendering="optimizeSpeed"/><rect width="5" height="5" x="77" y="67" fill="#000" shape-rendering="optimizeSpeed"/><rect width="5" height="5" x="102" y="67" fill="#000" shape-rendering="optimizeSpeed"/><rect width="5" height="5" x="107" y="67" fill="#000" shape-rendering="optimizeSpeed"/><rect width="5" height="5" x="117" y="67" fill="#000" shape-rendering="optimizeSpeed"/><rect width="5" height="5" x="127" y="67" fill="#000" shape-rendering="optimizeSpeed"/><rect width="5" height="5" x="137" y="67" fill="#000" shape-rendering="optimizeSpeed"/><rect width="5" height="5" x="152" y="67" fill="#000" shape-rendering="optimizeSpeed"/><rect width="5" height="5" x="157" y="67" fill="#000" shape-rendering="optimizeSpeed"/><rect width="5" height="5" x="162" y="67" fill="#000" shape-rendering="optimizeSpeed"/><rect width="5" height="5" x="172" y="67" fill="#000" shape-rendering="optimizeSpeed"/><rect width="5" height="5" x="17" y="72" fill="#000" shape-rendering="optimizeSpeed"/><rect width="5" height="5" x="22" y="72" fill="#000" shape-rendering="optimizeSpeed"/><rect width="5" height="5" x="27" y="72" fill="#000" shape-rendering="optimizeSpeed"/><rect width="5" height="5" x="37" y="72" fill="#000" shape-rendering="optimizeSpeed"/><rect width="5" height="5" x="42" y="72" fill="#000" shape-rendering="optimizeSpeed"/><rect width="5" height="5" x="62" y="72" fill="#000" shape-rendering="optimizeSpeed"/><rect width="5" height="5" x="67" y="72" fill="#000" shape-rendering="optimizeSpeed"/><rect width="5" height="5" x="72" y="72" fill="#000" shape-rendering="optimizeSpeed"/><rect width="5" height="5" x="87" y="72" fill="#000" shape-rendering="optimizeSpeed"/><rect width="5" height="5" x="97" y="72" fill="#000" shape-rendering="optimizeSpeed"/><rect width="5" height="5" x="107" y="72" fill="#000" shape-rendering="optimizeSpeed"/><rect width="5" height="5" x="117" y="72" fill="#000" shape-rendering="optimizeSpeed"/><rect width="5" height="5" x="122" y="72" fill="#000" shape-rendering="optimizeSpeed"/><rect width="5" height="5" x="132" y="72" fill="#000" shape-rendering="optimizeSpeed"/><rect width="5" height="5" x="142" y="72" fill="#000" shape-rendering="optimizeSpeed"/><rect width="5" height="5" x="147" y="72" fill="#000" shape-rendering="optimizeSpeed"/><rect width="5" height="5" x="157" y="72" fill="#000" shape-rendering="optimizeSpeed"/><rect width="5" height="5" x="167" y="72" fill="#000" shape-rendering="optimizeSpeed"/><rect width="5" height="5" x="47" y="77" fill="#000" shape-rendering="optimizeSpeed"/><rect width="5" height="5" x="52" y="77" fill="#000" shape-rendering="optimizeSpeed"/><rect width="5" height="5" x="57" y="77" fill="#000" shape-rendering="optimizeSpeed"/><rect width="5" height="5" x="62" y="77" fill="#000" shape-rendering="optimizeSpeed"/><rect width="5" height="5" x="72" y="77" fill="#000" shape-rendering="optimizeSpeed"/><rect width="5" height="5" x="102" y="77" fill="#000" shape-rendering="optimizeSpeed"/><rect width="5" height="5" x="107" y="77" fill="#000" shape-rendering="optimizeSpeed"/><rect width="5" height="5" x="112" y="77" fill="#000" shape-rendering="optimizeSpeed"/><rect width="5" height="5" x="127" y="77" fill="#000" shape-rendering="optimizeSpeed"/><rect width="5" height="5" x="132" y="77" fill="#000" shape-rendering="optimizeSpeed"/><rect width="5" height="5" x="137" y="77" fill="#000" shape-rendering="optimizeSpeed"/><rect width="5" height="5" x="142" y="77" fill="#000" shape-rendering="optimizeSpeed"/><rect width="5" height="5" x="152" y="77" fill="#000" shape-rendering="optimizeSpeed"/><rect width="5" height="5" x="157" y="77" fill="#000" shape-rendering="optimizeSpeed"/><rect width="5" height="5" x="162" y="77" fill="#000" shape-rendering="optimizeSpeed"/><rect width="5" height="5" x="17" y="82" fill="#000" shape-rendering="optimizeSpeed"/><rect width="5" height="5" x="37" y="82" fill="#000" shape-rendering="optimizeSpeed"/><rect width="5" height="5" x="42" y="82" fill="#000" shape-rendering="optimizeSpeed"/><rect width="5" height="5" x="67" y="82" fill="#000" shape-rendering="optimizeSpeed"/><rect width="5" height="5" x="77" y="82" fill="#000" shape-rendering="optimizeSpeed"/><rect width="5" height="5" x="82" y="82" fill="#000" shape-rendering="optimizeSpeed"/><rect width="5" height="5" x="87" y="82" fill="#000" shape-rendering="optimizeSpeed"/><rect width="5" height="5" x="92" y="82" fill="#000" shape-rendering="optimizeSpeed"/><rect width="5" height="5" x="102" y="82" fill="#000" shape-rendering="optimizeSpeed"/><rect width="5" height="5" x="107" y="82" fill="#000" shape-rendering="optimizeSpeed"/><rect width="5" height="5" x="112" y="82" fill="#000" shape-rendering="optimizeSpeed"/><rect width="5" height="5" x="117" y="82" fill="#000" shape-rendering="optimizeSpeed"/><rect width="5" height="5" x="122" y="82" fill="#000" shape-rendering="optimizeSpeed"/><rect width="5" height="5" x="147" y="82" fill="#000" shape-rendering="optimizeSpeed"/><rect width="5" height="5" x="152" y="82" fill="#000" shape-rendering="optimizeSpeed"/><rect width="5" height="5" x="172" y="82" fill="#000" shape-rendering="optimizeSpeed"/><rect width="5" height="5" x="177" y="82" fill="#000" shape-rendering="optimizeSpeed"/><rect width="5" height="5" x="17" y="87" fill="#000" shape-rendering="optimizeSpeed"/><rect width="5" height="5" x="22" y="87" fill="#000" shape-rendering="optimizeSpeed"/><rect width="5" height="5" x="37" y="87" fill="#000" shape-rendering="optimizeSpeed"/><rect width="5" height="5" x="42" y="87" fill="#000" shape-rendering="optimizeSpeed"/><rect width="5" height="5" x="47" y="87" fill="#000" shape-rendering="optimizeSpeed"/><rect width="5" height="5" x="67" y="87" fill="#000" shape-rendering="optimizeSpeed"/><rect width="5" height="5" x="82" y="87" fill="#000" shape-rendering="optimizeSpeed"/><rect width="5" height="5" x="87" y="87" fill="#000" shape-rendering="optimizeSpeed"/><rect width="5" height="5" x="92" y="87" fill="#000" shape-rendering="optimizeSpeed"/><rect width="5" height="5" x="102" y="87" fill="#000" shape-rendering="optimizeSpeed"/><rect width="5" height="5" x="117" y="87" fill="#000" shape-rendering="optimizeSpeed"/><rect width="5" height="5" x="127" y="87" fill="#000" shape-rendering="optimizeSpeed"/><rect width="5" height="5" x="137" y="87" fill="#000" shape-rendering="optimizeSpeed"/><rect width="5" height="5" x="142" y="87" fill="#000" shape-rendering="optimizeSpeed"/><rect width="5" height="5" x="147" y="87" fill="#000" shape-rendering="optimizeSpeed"/><rect width="5" height="5" x="152" y="87" fill="#000" shape-rendering="optimizeSpeed"/><rect width="5" height="5" x="157" y="87" fill="#000" shape-rendering="optimizeSpeed"/><rect width="5" height="5" x="172" y="87" fill="#000" shape-rendering="optimizeSpeed"/><rect width="5" height="5" x="27" y="92" fill="#000" shape-rendering="optimizeSpeed"/><rect width="5" height="5" x="37" y="92" fill="#000" shape-rendering="optimizeSpeed"/><rect width="5" height="5" x="62" y="92" fill="#000" shape-rendering="optimizeSpeed"/><rect width="5" height="5" x="67" y="92" fill="#000" shape-rendering="optimizeSpeed"/><rect width="5" height="5" x="77" y="92" fill="#000" shape-rendering="optimizeSpeed"/><rect width="5" height="5" x="82" y="92" fill="#000" shape-rendering="optimizeSpeed"/><rect width="5" height="5" x="92" y="92" fill="#000" shape-rendering="optimizeSpeed"/><rect width="5" height="5" x="97" y="92" fill="#000" shape-rendering="optimizeSpeed"/><rect width="5" height="5" x="112" y="92" fill="#000" shape-rendering="optimizeSpeed"/><rect width="5" height="5" x="117" y="92" fill="#000" shape-rendering="optimizeSpeed"/><rect width="5" height="5" x="122" y="92" fill="#000" shape-rendering="optimizeSpeed"/><rect width="5" height="5" x="127" y="92" fill="#000" shape-rendering="optimizeSpeed"/><rect width="5" height="5" x="132" y="92" fill="#000" shape-rendering="optimizeSpeed"/><rect width="5" height="5" x="142" y="92" fill="#000" shape-rendering="optimizeSpeed"/><rect width="5" height="5" x="147" y="92" fill="#000" shape-rendering="optimizeSpeed"/><rect width="5" height="5" x="152" y="92" fill="#000" shape-rendering="optimizeSpeed"/><rect width="5" height="5" x="167" y="92" fill="#000" shape-rendering="optimizeSpeed"/><rect width="5" height="5" x="22" y="97" fill="#000" shape-rendering="optimizeSpeed"/><rect width="5" height="5" x="27" y="97" fill="#000" shape-rendering="optimizeSpeed"/><rect width="5" height="5" x="42" y="97" fill="#000" shape-rendering="optimizeSpeed"/><rect width="5" height="5" x="47" y="97" fill="#000" shape-rendering="optimizeSpeed"/><rect width="5" height="5" x="57" y="97" fill="#000" shape-rendering="optimizeSpeed"/><rect width="5" height="5" x="67" y="97" fill="#000" shape-rendering="optimizeSpeed"/><rect width="5" height="5" x="77" y="97" fill="#000" shape-rendering="optimizeSpeed"/><rect width="5" height="5" x="87" y="97" fill="#000" shape-rendering="optimizeSpeed"/><rect width="5" height="5" x="92" y="97" fill="#000" shape-rendering="optimizeSpeed"/><rect width="5" height="5" x="112" y="97" fill="#000" shape-rendering="optimizeSpeed"/><rect width="5" height="5" x="122" y="97" fill="#000" shape-rendering="optimizeSpeed"/><rect width="5" height="5" x="127" y="97" fill="#000" shape-rendering="optimizeSpeed"/><rect width="5" height="5" x="132" y="97" fill="#000" shape-rendering="optimizeSpeed"/><rect width="5" height="5" x="137" y="97" fill="#000" shape-rendering="optimizeSpeed"/><rect width="5" height="5" x="142" y="97" fill="#000" shape-rendering="optimizeSpeed"/><rect width="5" height="5" x="152" y="97" fill="#000" shape-rendering="optimizeSpeed"/><rect width="5" height="5" x="157" y="97" fill="#000" shape-rendering="optimizeSpeed"/><rect width="5" height="5" x="172" y="97" fill="#000" shape-rendering="optimizeSpeed"/><rect width="5" height="5" x="22" y="102" fill="#000" shape-rendering="optimizeSpeed"/><rect width="5" height="5" x="27" y="102" fill="#000" shape-rendering="optimizeSpeed"/><rect width="5" height="5" x="32" y="102" fill="#000" shape-rendering="optimizeSpeed"/><rect width="5" height="5" x="37" y="102" fill="#000" shape-rendering="optimizeSpeed"/><rect width="5" height="5" x="42" y="102" fill="#000" shape-rendering="optimizeSpeed"/><rect width="5" height="5" x="52" y="102" fill="#000" shape-rendering="optimizeSpeed"/><rect width="5" height="5" x="67" y="102" fill="#000" shape-rendering="optimizeSpeed"/><rect width="5" height="5" x="97" y="102" fill="#000" shape-rendering="optimizeSpeed"/><rect width="5" height="5" x="107" y="102" fill="#000" shape-rendering="optimizeSpeed"/><rect width="5" height="5" x="112" y="102" fill="#000" shape-rendering="optimizeSpeed"/><rect width="5" height="5" x="147" y="102" fill="#000" shape-rendering="optimizeSpeed"/><rect width="5" height="5" x="162" y="102" fill="#000" shape-rendering="optimizeSpeed"/><rect width="5" height="5" x="172" y="102" fill="#000" shape-rendering="optimizeSpeed"/><rect width="5" height="5" x="177" y="102" fill="#000" shape-rendering="optimizeSpeed"/><rect width="5" height="5" x="17" y="107" fill="#000" shape-rendering="optimizeSpeed"/><rect width="5" height="5" x="32" y="107" fill="#000" shape-rendering="optimizeSpeed"/><rect width="5" height="5" x="42" y="107" fill="#000" shape-rendering="optimizeSpeed"/><rect width="5" height="5" x="47" y="107" fill="#000" shape-rendering="optimizeSpeed"/><rect width="5" height="5" x="57" y="107" fill="#000" shape-rendering="optimizeSpeed"/><rect width="5" height="5" x="62" y="107" fill="#000" shape-rendering="optimizeSpeed"/><rect width="5" height="5" x="72" y="107" fill="#000" shape-rendering="optimizeSpeed"/><rect width="5" height="5" x="77" y="107" fill="#000" shape-rendering="optimizeSpeed"/><rect width="5" height="5" x="92" y="107" fill="#000" shape-rendering="optimizeSpeed"/><rect width="5" height="5" x="97" y="107" fill="#000" shape-rendering="optimizeSpeed"/><rect width="5" height="5" x="127" y="107" fill="#000" shape-rendering="optimizeSpeed"/><rect width="5" height="5" x="142" y="107" fill="#000" shape-rendering="optimizeSpeed"/><rect width="5" height="5" x="147" y="107" fill="#000" shape-rendering="optimizeSpeed"/><rect width="5" height="5" x="162" y="107" fill="#000" shape-rendering="optimizeSpeed"/><rect width="5" height="5" x="172" y="107" fill="#000" shape-rendering="optimizeSpeed"/><rect width="5" height="5" x="22" y="112" fill="#000" shape-rendering="optimizeSpeed"/><rect width="5" height="5" x="27" y="112" fill="#000" shape-rendering="optimizeSpeed"/><rect width="5" height="5" x="37" y="112" fill="#000" shape-rendering="optimizeSpeed"/><rect width="5" height="5" x="62" y="112" fill="#000" shape-rendering="optimizeSpeed"/><rect width="5" height="5" x="72" y="112" fill="#000" shape-rendering="optimizeSpeed"/><rect width="5" height="5" x="87" y="112" fill="#000" shape-rendering="optimizeSpeed"/><rect width="5" height="5" x="92" y="112" fill="#000" shape-rendering="optimizeSpeed"/><rect width="5" height="5" x="97" y="112" fill="#000" shape-rendering="optimizeSpeed"/><rect width="5" height="5" x="107" y="112" fill="#000" shape-rendering="optimizeSpeed"/><rect width="5" height="5" x="112" y="112" fill="#000" shape-rendering="optimizeSpeed"/><rect width="5" height="5" x="122" y="112" fill="#000" shape-rendering="optimizeSpeed"/><rect width="5" height="5" x="132" y="112" fill="#000" shape-rendering="optimizeSpeed"/><rect width="5" height="5" x="142" y="112" fill="#000" shape-rendering="optimizeSpeed"/><rect width="5" height="5" x="167" y="112" fill="#000" shape-rendering="optimizeSpeed"/><rect width="5" height="5" x="17" y="117" fill="#000" shape-rendering="optimizeSpeed"/><rect width="5" height="5" x="27" y="117" fill="#000" shape-rendering="optimizeSpeed"/><rect width="5" height="5" x="42" y="117" fill="#000" shape-rendering="optimizeSpeed"/><rect width="5" height="5" x="47" y="117" fill="#000" shape-rendering="optimizeSpeed"/><rect width="5" height="5" x="52" y="117" fill="#000" shape-rendering="optimizeSpeed"/><rect width="5" height="5" x="57" y="117" fill="#000" shape-rendering="optimizeSpeed"/><rect width="5" height="5" x="72" y="117" fill="#000" shape-rendering="optimizeSpeed"/><rect width="5" height="5" x="102" y="117" fill="#000" shape-rendering="optimizeSpeed"/><rect width="5" height="5" x="122" y="117" fill="#000" shape-rendering="optimizeSpeed"/><rect width="5" height="5" x="127" y="117" fill="#000" shape-rendering="optimizeSpeed"/><rect width="5" height="5" x="137" y="117" fill="#000" shape-rendering="optimizeSpeed"/><rect width="5" height="5" x="157" y="117" fill="#000" shape-rendering="optimizeSpeed"/><rect width="5" height="5" x="172" y="117" fill="#000" shape-rendering="optimizeSpeed"/><rect width="5" height="5" x="17" y="122" fill="#000" shape-rendering="optimizeSpeed"/><rect width="5" height="5" x="22" y="122" fill="#000" shape-rendering="optimizeSpeed"/><rect width="5" height="5" x="27" y="122" fill="#000" shape-rendering="optimizeSpeed"/><rect width="5" height="5" x="42" y="122" fill="#000" shape-rendering="optimizeSpeed"/><rect width="5" height="5" x="77" y="122" fill="#000" shape-rendering="optimizeSpeed"/><rect width="5" height="5" x="82" y="122" fill="#000" shape-rendering="optimizeSpeed"/><rect width="5" height="5" x="87" y="122" fill="#000" shape-rendering="optimizeSpeed"/><rect width="5" height="5" x="97" y="122" fill="#000" shape-rendering="optimizeSpeed"/><rect width="5" height="5" x="102" y="122" fill="#000" shape-rendering="optimizeSpeed"/><rect width="5" height="5" x="107" y="122" fill="#000" shape-rendering="optimizeSpeed"/><rect width="5" height="5" x="112" y="122" fill="#000" shape-rendering="optimizeSpeed"/><rect width="5" height="5" x="117" y="122" fill="#000" shape-rendering="optimizeSpeed"/><rect width="5" height="5" x="132" y="122" fill="#000" shape-rendering="optimizeSpeed"/><rect width="5" height="5" x="147" y="122" fill="#000" shape-rendering="optimizeSpeed"/><rect width="5" height="5" x="162" y="122" fill="#000" shape-rendering="optimizeSpeed"/><rect width="5" height="5" x="172" y="122" fill="#000" shape-rendering="optimizeSpeed"/><rect width="5" height="5" x="177" y="122" fill="#000" shape-rendering="optimizeSpeed"/><rect width="5" height="5" x="17" y="127" fill="#000" shape-rendering="optimizeSpeed"/><rect width="5" height="5" x="27" y="127" fill="#000" shape-rendering="optimizeSpeed"/><rect width="5" height="5" x="37" y="127" fill="#000" shape-rendering="optimizeSpeed"/><rect width="5" height="5" x="47" y="127" fill="#000" shape-rendering="optimizeSpeed"/><rect width="5" height="5" x="52" y="127" fill="#000" shape-rendering="optimizeSpeed"/><rect width="5" height="5" x="57" y="127" fill="#000" shape-rendering="optimizeSpeed"/><rect width="5" height="5" x="67" y="127" fill="#000" shape-rendering="optimizeSpeed"/><rect width="5" height="5" x="82" y="127" fill="#000" shape-rendering="optimizeSpeed"/><rect width="5" height="5" x="87" y="127" fill="#000" shape-rendering="optimizeSpeed"/><rect width="5" height="5" x="92" y="127" fill="#000" shape-rendering="optimizeSpeed"/><rect width="5" height="5" x="102" y="127" fill="#000" shape-rendering="optimizeSpeed"/><rect width="5" height="5" x="117" y="127" fill="#000" shape-rendering="optimizeSpeed"/><rect width="5" height="5" x="127" y="127" fill="#000" shape-rendering="optimizeSpeed"/><rect width="5" height="5" x="137" y="127" fill="#000" shape-rendering="optimizeSpeed"/><rect width="5" height="5" x="142" y="127" fill="#000" shape-rendering="optimizeSpeed"/><rect width="5" height="5" x="147" y="127" fill="#000" shape-rendering="optimizeSpeed"/><rect width="5" height="5" x="152" y="127" fill="#000" shape-rendering="optimizeSpeed"/><rect width="5" height="5" x="162" y="127" fill="#000" shape-rendering="optimizeSpeed"/><rect width="5" height="5" x="172" y="127" fill="#000" shape-rendering="optimizeSpeed"/><rect width="5" height="5" x="17" y="132" fill="#000" shape-rendering="optimizeSpeed"/><rect width="5" height="5" x="27" y="132" fill="#000" shape-rendering="optimizeSpeed"/><rect width="5" height="5" x="32" y="132" fill="#000" shape-rendering="optimizeSpeed"/><rect width="5" height="5" x="37" y="132" fill="#000" shape-rendering="optimizeSpeed"/><rect width="5" height="5" x="52" y="132" fill="#000" shape-rendering="optimizeSpeed"/><rect width="5" height="5" x="57" y="132" fill="#000" shape-rendering="optimizeSpeed"/><rect width="5" height="5" x="62" y="132" fill="#000" shape-rendering="optimizeSpeed"/><rect width="5" height="5" x="67" y="132" fill="#000" shape-rendering="optimizeSpeed"/><rect width="5" height="5" x="77" y="132" fill="#000" shape-rendering="optimizeSpeed"/><rect width="5" height="5" x="82" y="132" fill="#000" shape-rendering="optimizeSpeed"/><rect width="5" height="5" x="97" y="132" fill="#000" shape-rendering="optimizeSpeed"/><rect width="5" height="5" x="112" y="132" fill="#000" shape-rendering="optimizeSpeed"/><rect width="5" height="5" x="117" y="132" fill="#000" shape-rendering="optimizeSpeed"/><rect width="5" height="5" x="122" y="132" fill="#000" shape-rendering="optimizeSpeed"/><rect width="5" height="5" x="132" y="132" fill="#000" shape-rendering="optimizeSpeed"/><rect width="5" height="5" x="142" y="132" fill="#000" shape-rendering="optimizeSpeed"/><rect width="5" height="5" x="147" y="132" fill="#000" shape-rendering="optimizeSpeed"/><rect width="5" height="5" x="152" y="132" fill="#000" shape-rendering="optimizeSpeed"/><rect width="5" height="5" x="157" y="132" fill="#000" shape-rendering="optimizeSpeed"/><rect width="5" height="5" x="162" y="132" fill="#000" shape-rendering="optimizeSpeed"/><rect width="5" height="5" x="167" y="132" fill="#000" shape-rendering="optimizeSpeed"/><rect width="5" height="5" x="17" y="137" fill="#000" shape-rendering="optimizeSpeed"/><rect width="5" height="5" x="27" y="137" fill="#000" shape-rendering="optimizeSpeed"/><rect width="5" height="5" x="32" y="137" fill="#000" shape-rendering="optimizeSpeed"/><rect width="5" height="5" x="37" y="137" fill="#000" shape-rendering="optimizeSpeed"/><rect width="5" height="5" x="47" y="137" fill="#000" shape-rendering="optimizeSpeed"/><rect width="5" height="5" x="52" y="137" fill="#000" shape-rendering="optimizeSpeed"/><rect width="5" height="5" x="57" y="137" fill="#000" shape-rendering="optimizeSpeed"/><rect width="5" height="5" x="67" y="137" fill="#000" shape-rendering="optimizeSpeed"/><rect width="5" height="5" x="77" y="137" fill="#000" shape-rendering="optimizeSpeed"/><rect width="5" height="5" x="87" y="137" fill="#000" shape-rendering="optimizeSpeed"/><rect width="5" height="5" x="102" y="137" fill="#000" shape-rendering="optimizeSpeed"/><rect width="5" height="5" x="112" y="137" fill="#000" shape-rendering="optimizeSpeed"/><rect width="5" height="5" x="122" y="137" fill="#000" shape-rendering="optimizeSpeed"/><rect width="5" height="5" x="127" y="137" fill="#000" shape-rendering="optimizeSpeed"/><rect width="5" height="5" x="132" y="137" fill="#000" shape-rendering="optimizeSpeed"/><rect width="5" height="5" x="137" y="137" fill="#000" shape-rendering="optimizeSpeed"/><rect width="5" height="5" x="142" y="137" fill="#000" shape-rendering="optimizeSpeed"/><rect width="5" height="5" x="147" y="137" fill="#000" shape-rendering="optimizeSpeed"/><rect width="5" height="5" x="152" y="137" fill="#000" shape-rendering="optimizeSpeed"/><rect width="5" height="5" x="157" y="137" fill="#000" shape-rendering="optimizeSpeed"/><rect width="5" height="5" x="177" y="137" fill="#000" shape-rendering="optimizeSpeed"/><rect width="5" height="5" x="57" y="142" fill="#000" shape-rendering="optimizeSpeed"/><rect width="5" height="5" x="62" y="142" fill="#000" shape-rendering="optimizeSpeed"/><rect width="5" height="5" x="102" y="142" fill="#000" shape-rendering="optimizeSpeed"/><rect width="5" height="5" x="107" y="142" fill="#000" shape-rendering="optimizeSpeed"/><rect width="5" height="5" x="112" y="142" fill="#000" shape-rendering="optimizeSpeed"/><rect width="5" height="5" x="117" y="142" fill="#000" shape-rendering="optimizeSpeed"/><rect width="5" height="5" x="122" y="142" fill="#000" shape-rendering="optimizeSpeed"/><rect width="5" height="5" x="127" y="142" fill="#000" shape-rendering="optimizeSpeed"/><rect width="5" height="5" x="137" y="142" fill="#000" shape-rendering="optimizeSpeed"/><rect width="5" height="5" x="157" y="142" fill="#000" shape-rendering="optimizeSpeed"/><rect width="5" height="5" x="162" y="142" fill="#000" shape-rendering="optimizeSpeed"/><rect width="5" height="5" x="167" y="142" fill="#000" shape-rendering="optimizeSpeed"/><rect width="5" height="5" x="177" y="142" fill="#000" shape-rendering="optimizeSpeed"/><rect width="5" height="5" x="17" y="147" fill="#000" shape-rendering="optimizeSpeed"/><rect width="5" height="5" x="22" y="147" fill="#000" shape-rendering="optimizeSpeed"/><rect width="5" height="5" x="27" y="147" fill="#000" shape-rendering="optimizeSpeed"/><rect width="5" height="5" x="32" y="147" fill="#000" shape-rendering="optimizeSpeed"/><rect width="5" height="5" x="37" y="147" fill="#000" shape-rendering="optimizeSpeed"/><rect width="5" height="5" x="42" y="147" fill="#000" shape-rendering="optimizeSpeed"/><rect width="5" height="5" x="47" y="147" fill="#000" shape-rendering="optimizeSpeed"/><rect width="5" height="5" x="57" y="147" fill="#000" shape-rendering="optimizeSpeed"/><rect width="5" height="5" x="72" y="147" fill="#000" shape-rendering="optimizeSpeed"/><rect width="5" height="5" x="77" y="147" fill="#000" shape-rendering="optimizeSpeed"/><rect width="5" height="5" x="92" y="147" fill="#000" shape-rendering="optimizeSpeed"/><rect width="5" height="5" x="97" y="147" fill="#000" shape-rendering="optimizeSpeed"/><rect width="5" height="5" x="102" y="147" fill="#000" shape-rendering="optimizeSpeed"/><rect width="5" height="5" x="122" y="147" fill="#000" shape-rendering="optimizeSpeed"/><rect width="5" height="5" x="127" y="147" fill="#000" shape-rendering="optimizeSpeed"/><rect width="5" height="5" x="132" y="147" fill="#000" shape-rendering="optimizeSpeed"/><rect width="5" height="5" x="137" y="147" fill="#000" shape-rendering="optimizeSpeed"/><rect width="5" height="5" x="147" y="147" fill="#000" shape-rendering="optimizeSpeed"/><rect width="5" height="5" x="157" y="147" fill="#000" shape-rendering="optimizeSpeed"/><rect width="5" height="5" x="162" y="147" fill="#000" shape-rendering="optimizeSpeed"/><rect width="5" height="5" x="172" y="147" fill="#000" shape-rendering="optimizeSpeed"/><rect width="5" height="5" x="17" y="152" fill="#000" shape-rendering="optimizeSpeed"/><rect width="5" height="5" x="47" y="152" fill="#000" shape-rendering="optimizeSpeed"/><rect width="5" height="5" x="67" y="152" fill="#000" shape-rendering="optimizeSpeed"/><rect width="5" height="5" x="72" y="152" fill="#000" shape-rendering="optimizeSpeed"/><rect width="5" height="5" x="87" y="152" fill="#000" shape-rendering="optimizeSpeed"/><rect width="5" height="5" x="92" y="152" fill="#000" shape-rendering="optimizeSpeed"/><rect width="5" height="5" x="97" y="152" fill="#000" shape-rendering="optimizeSpeed"/><rect width="5" height="5" x="107" y="152" fill="#000" shape-rendering="optimizeSpeed"/><rect width="5" height="5" x="117" y="152" fill="#000" shape-rendering="optimizeSpeed"/><rect width="5" height="5" x="122" y="152" fill="#000" shape-rendering="optimizeSpeed"/><rect width="5" height="5" x="132" y="152" fill="#000" shape-rendering="optimizeSpeed"/><rect width="5" height="5" x="137" y="152" fill="#000" shape-rendering="optimizeSpeed"/><rect width="5" height="5" x="157" y="152" fill="#000" shape-rendering="optimizeSpeed"/><rect width="5" height="5" x="162" y="152" fill="#000" shape-rendering="optimizeSpeed"/><rect width="5" height="5" x="167" y="152" fill="#000" shape-rendering="optimizeSpeed"/><rect width="5" height="5" x="17" y="157" fill="#000" shape-rendering="optimizeSpeed"/><rect width="5" height="5" x="27" y="157" fill="#000" shape-rendering="optimizeSpeed"/><rect width="5" height="5" x="32" y="157" fill="#000" shape-rendering="optimizeSpeed"/><rect width="5" height="5" x="37" y="157" fill="#000" shape-rendering="optimizeSpeed"/><rect width="5" height="5" x="47" y="157" fill="#000" shape-rendering="optimizeSpeed"/><rect width="5" height="5" x="57" y="157" fill="#000" shape-rendering="optimizeSpeed"/><rect width="5" height="5" x="67" y="157" fill="#000" shape-rendering="optimizeSpeed"/><rect width="5" height="5" x="72" y="157" fill="#000" shape-rendering="optimizeSpeed"/><rect width="5" height="5" x="92" y="157" fill="#000" shape-rendering="optimizeSpeed"/><rect width="5" height="5" x="102" y="157" fill="#000" shape-rendering="optimizeSpeed"/><rect width="5" height="5" x="112" y="157" fill="#000" shape-rendering="optimizeSpeed"/><rect width="5" height="5" x="137" y="157" fill="#000" shape-rendering="optimizeSpeed"/><rect width="5" height="5" x="142" y="157" fill="#000" shape-rendering="optimizeSpeed"/><rect width="5" height="5" x="147" y="157" fill="#000" shape-rendering="optimizeSpeed"/><rect width="5" height="5" x="152" y="157" fill="#000" shape-rendering="optimizeSpeed"/><rect width="5" height="5" x="157" y="157" fill="#000" shape-rendering="optimizeSpeed"/><rect width="5" height="5" x="177" y="157" fill="#000" shape-rendering="optimizeSpeed"/><rect width="5" height="5" x="17" y="162" fill="#000" shape-rendering="optimizeSpeed"/><rect width="5" height="5" x="27" y="162" fill="#000" shape-rendering="optimizeSpeed"/><rect width="5" height="5" x="32" y="162" fill="#000" shape-rendering="optimizeSpeed"/><rect width="5" height="5" x="37" y="162" fill="#000" shape-rendering="optimizeSpeed"/><rect width="5" height="5" x="47" y="162" fill="#000" shape-rendering="optimizeSpeed"/><rect width="5" height="5" x="57" y="162" fill="#000" shape-rendering="optimizeSpeed"/><rect width="5" height="5" x="77" y="162" fill="#000" shape-rendering="optimizeSpeed"/><rect width="5" height="5" x="82" y="162" fill="#000" shape-rendering="optimizeSpeed"/><rect width="5" height="5" x="87" y="162" fill="#000" shape-rendering="optimizeSpeed"/><rect width="5" height="5" x="97" y="162" fill="#000" shape-rendering="optimizeSpeed"/><rect width="5" height="5" x="107" y="162" fill="#000" shape-rendering="optimizeSpeed"/><rect width="5" height="5" x="112" y="162" fill="#000" shape-rendering="optimizeSpeed"/><rect width="5" height="5" x="117" y="162" fill="#000" shape-rendering="optimizeSpeed"/><rect width="5" height="5" x="132" y="162" fill="#000" shape-rendering="optimizeSpeed"/><rect width="5" height="5" x="137" y="162" fill="#000" shape-rendering="optimizeSpeed"/><rect width="5" height="5" x="142" y="162" fill="#000" shape-rendering="optimizeSpeed"/><rect width="5" height="5" x="152" y="162" fill="#000" shape-rendering="optimizeSpeed"/><rect width="5" height="5" x="157" y="162" fill="#000" shape-rendering="optimizeSpeed"/><rect width="5" height="5" x="172" y="162" fill="#000" shape-rendering="optimizeSpeed"/><rect width="5" height="5" x="177" y="162" fill="#000" shape-rendering="optimizeSpeed"/><rect width="5" height="5" x="17" y="167" fill="#000" shape-rendering="optimizeSpeed"/><rect width="5" height="5" x="27" y="167" fill="#000" shape-rendering="optimizeSpeed"/><rect width="5" height="5" x="32" y="167" fill="#000" shape-rendering="optimizeSpeed"/><rect width="5" height="5" x="37" y="167" fill="#000" shape-rendering="optimizeSpeed"/><rect width="5" height="5" x="47" y="167" fill="#000" shape-rendering="optimizeSpeed"/><rect width="5" height="5" x="57" y="167" fill="#000" shape-rendering="optimizeSpeed"/><rect width="5" height="5" x="67" y="167" fill="#000" shape-rendering="optimizeSpeed"/><rect width="5" height="5" x="82" y="167" fill="#000" shape-rendering="optimizeSpeed"/><rect width="5" height="5" x="87" y="167" fill="#000" shape-rendering="optimizeSpeed"/><rect width="5" height="5" x="92" y="167" fill="#000" shape-rendering="optimizeSpeed"/><rect width="5" height="5" x="107" y="167" fill="#000" shape-rendering="optimizeSpeed"/><rect width="5" height="5" x="127" y="167" fill="#000" shape-rendering="optimizeSpeed"/><rect width="5" height="5" x="162" y="167" fill="#000" shape-rendering="optimizeSpeed"/><rect width="5" height="5" x="167" y="167" fill="#000" shape-rendering="optimizeSpeed"/><rect width="5" height="5" x="17" y="172" fill="#000" shape-rendering="optimizeSpeed"/><rect width="5" height="5" x="47" y="172" fill="#000" shape-rendering="optimizeSpeed"/><rect width="5" height="5" x="57" y="172" fill="#000" shape-rendering="optimizeSpeed"/><rect width="5" height="5" x="62" y="172" fill="#000" shape-rendering="optimizeSpeed"/><rect width="5" height="5" x="67" y="172" fill="#000" shape-rendering="optimizeSpeed"/><rect width="5" height="5" x="77" y="172" fill="#000" shape-rendering="optimizeSpeed"/><rect width="5" height="5" x="82" y="172" fill="#000" shape-rendering="optimizeSpeed"/><rect width="5" height="5" x="92" y="172" fill="#000" shape-rendering="optimizeSpeed"/><rect width="5" height="5" x="97" y="172" fill="#000" shape-rendering="optimizeSpeed"/><rect width="5" height="5" x="112" y="172" fill="#000" shape-rendering="optimizeSpeed"/><rect width="5" height="5" x="122" y="172" fill="#000" shape-rendering="optimizeSpeed"/><rect width="5" height="5" x="127" y="172" fill="#000" shape-rendering="optimizeSpeed"/><rect width="5" height="5" x="147" y="172" fill="#000" shape-rendering="optimizeSpeed"/><rect width="5" height="5" x="152" y="172" fill="#000" shape-rendering="optimizeSpeed"/><rect width="5" height="5" x="162" y="172" fill="#000" shape-rendering="optimizeSpeed"/><rect width="5" height="5" x="167" y="172" fill="#000" shape-rendering="optimizeSpeed"/><rect width="5" height="5" x="17" y="177" fill="#000" shape-rendering="optimizeSpeed"/><rect width="5" height="5" x="22" y="177" fill="#000" shape-rendering="optimizeSpeed"/><rect width="5" height="5" x="27" y="177" fill="#000" shape-rendering="optimizeSpeed"/><rect width="5" height="5" x="32" y="177" fill="#000" shape-rendering="optimizeSpeed"/><rect width="5" height="5" x="37" y="177" fill="#000" shape-rendering="optimizeSpeed"/><rect width="5" height="5" x="42" y="177" fill="#000" shape-rendering="optimizeSpeed"/><rect width="5" height="5" x="47" y="177" fill="#000" shape-rendering="optimizeSpeed"/><rect width="5" height="5" x="57" y="177" fill="#000" shape-rendering="optimizeSpeed"/><rect width="5" height="5" x="62" y="177" fill="#000" shape-rendering="optimizeSpeed"/><rect width="5" height="5" x="77" y="177" fill="#000" shape-rendering="optimizeSpeed"/><rect width="5" height="5" x="87" y="177" fill="#000" shape-rendering="optimizeSpeed"/><rect width="5" height="5" x="92" y="177" fill="#000" shape-rendering="optimizeSpeed"/><rect width="5" height="5" x="97" y="177" fill="#000" shape-rendering="optimizeSpeed"/><rect width="5" height="5" x="102" y="177" fill="#000" shape-rendering="optimizeSpeed"/><rect width="5" height="5" x="127" y="177" fill="#000" shape-rendering="optimizeSpeed"/><rect width="5" height="5" x="132" y="177" fill="#000" shape-rendering="optimizeSpeed"/><rect width="5" height="5" x="137" y="177" fill="#000" shape-rendering="optimizeSpeed"/><rect width="5" height="5" x="142" y="177" fill="#000" shape-rendering="optimizeSpeed"/><rect width="5" height="5" x="147" y="177" fill="#000" shape-rendering="optimizeSpeed"/><rect width="5" height="5" x="162" y="177" fill="#000" shape-rendering="optimizeSpeed"/><rect width="5" height="5" x="172" y="177" fill="#000" shape-rendering="optimizeSpeed"/></svg>